<?xml version="1.0" encoding="UTF-8"?>
<svg xmlns="http://www.w3.org/2000/svg" xmlns:xlink="http://www.w3.org/1999/xlink" width="2834.88" height="2834.88" viewBox="0 0 2834.88 2834.88">
<path fill-rule="evenodd" fill="rgb(2.799988%, 1.800537%, 1.597595%)" fill-opacity="1" d="M 893.117188 1271.390625 C 935.109375 1322.550781 1007.148438 1328.589844 1056.441406 1330.71875 C 1089.960938 1332.171875 1130.300781 1337.511719 1183.449219 1346.71875 C 1344.761719 1374.679688 1628.679688 1428.449219 1716.859375 1417.699219 C 1768.941406 1411.351562 1810.308594 1418.800781 1865.171875 1398.738281 C 1884.058594 1391.839844 1916.71875 1361.949219 1913.890625 1341.421875 C 1909.441406 1309.140625 1910.128906 1272.378906 1912.230469 1232.300781 C 1914.828125 1182.351562 1918.058594 1132.789062 1934.089844 1075.269531 C 1950.128906 1017.75 2007.398438 1055.851562 2025.789062 1090.5 L 2044.171875 1125.140625 C 2058.890625 1117.699219 2110.210938 1115.410156 2157.148438 1131.148438 C 2197.75 1144.769531 2235.078125 1175.21875 2242.640625 1187.308594 L 2267.488281 1170.109375 C 2301.148438 1149.96875 2361.058594 1132.308594 2345.03125 1189.828125 C 2328.988281 1247.351562 2314.378906 1303.289062 2290.769531 1347.390625 C 2271.828125 1382.769531 2234.699219 1440.25 2192.878906 1462.289062 C 2177.089844 1470.609375 2143.03125 1519.898438 2113.871094 1565.460938 C 2086.769531 1607.808594 2050.460938 1659.101562 2044.941406 1666.609375 C 2018.558594 1702.550781 1988.039062 1739.429688 1961.011719 1760.128906 C 1896.320312 1809.679688 1700.851562 1866.121094 1678.820312 1901.910156 C 1656.800781 1937.703125 1627.699219 2197.847656 1627.699219 2197.847656 C 1627.699219 2197.847656 1726.171875 2173.15625 1721.050781 2250.1875 C 1719.480469 2273.863281 1702.371094 2286.738281 1702.371094 2286.738281 L 1583.511719 2285.316406 C 1583.511719 2285.316406 1537.960938 2291.421875 1531.351562 2229.753906 C 1525.808594 2178.019531 1500.839844 1944.636719 1492.949219 1870.792969 C 1491.429688 1856.613281 1532.828125 1826 1532.828125 1826 C 1532.828125 1826 1502.25 1838.761719 1472.53125 1838.359375 C 1372.289062 1836.988281 1159.878906 1819.859375 1116.351562 1809.25 C 1059.910156 1795.480469 1000.71875 1829.890625 964.925781 1851.917969 C 929.136719 1873.945312 668.5625 2004.542969 652.042969 2012.804688 C 635.523438 2021.0625 599.003906 2089.0625 588.433594 2127.828125 C 577.859375 2166.589844 570.8125 2189.847656 585.613281 2208.175781 C 600.414062 2226.496094 608.871094 2261.738281 595.480469 2278.652344 C 582.089844 2295.566406 526.410156 2303.320312 503.152344 2265.96875 C 479.894531 2228.613281 484.828125 2166.589844 498.21875 2113.730469 C 511.609375 2060.871094 529.796875 1958.585938 594.105469 1875.769531 C 658.421875 1792.960938 720.398438 1646.570312 745.945312 1571.691406 C 763.527344 1520.148438 802.257812 1454.410156 839.300781 1411.441406 C 800.660156 1354.621094 739.996094 1251.53125 709.347656 1127.011719 C 681.464844 1013.730469 677.6875 883.230469 735.382812 753.46875 C 799.328125 609.660156 917.425781 546.898438 1030.359375 542.378906 C 1172.101562 536.710938 1304.101562 623.070312 1318.679688 753.941406 C 1321.300781 774.808594 1306.488281 793.878906 1285.628906 796.5 C 1264.761719 799.121094 1245.691406 784.308594 1243.070312 763.441406 C 1230.390625 672.859375 1133.289062 621.101562 1034.980469 627.808594 C 951.761719 633.480469 866.828125 683.390625 822.636719 790.800781 C 777.910156 899.53125 784.945312 1007.46875 810.652344 1100.558594 C 829.695312 1169.519531 858.097656 1228.738281 893.117188 1271.390625 Z M 2064.980469 1677.730469 L 2065.019531 1679.671875 C 2066.738281 1770.871094 2083.949219 1936.050781 2083.949219 1936.050781 L 2214.71875 2127.046875 C 2214.71875 2127.046875 2250.851562 2164.902344 2286.988281 2211.359375 C 2323.121094 2257.816406 2268.058594 2268.140625 2216.441406 2250.933594 C 2164.820312 2233.726562 2147.609375 2182.109375 2147.609375 2182.109375 C 2147.609375 2182.109375 2048.269531 2108.789062 2012.320312 2073.621094 C 1967.058594 2029.351562 1930.808594 1972.183594 1930.808594 1972.183594 L 1905 1936.050781 C 1889.96875 1915.015625 1856.871094 1877.070312 1831.828125 1849.03125 C 1887.628906 1825.691406 1944.910156 1801.121094 1974.851562 1778.191406 C 2003.828125 1755.988281 2036.859375 1716.160156 2064.980469 1677.730469 Z M 1202.460938 1844.367188 C 1148.28125 1934.984375 1055.398438 2080.359375 1058.539062 2103.914062 C 1061.980469 2129.726562 1139.410156 2200.273438 1139.410156 2200.273438 L 1163.5 2193.390625 C 1187.589844 2186.507812 1223.71875 2198.554688 1232.328125 2231.246094 C 1240.929688 2263.9375 1216.839844 2272.542969 1216.839844 2272.542969 L 1092.949219 2267.378906 C 1092.949219 2267.378906 991.429688 2169.300781 944.972656 2109.078125 C 898.511719 2048.855469 910.558594 2011 927.765625 1957.65625 C 933.722656 1939.1875 935.554688 1916.183594 935.402344 1893.992188 C 955.171875 1883.570312 970.050781 1875.484375 976.851562 1871.296875 C 1008.691406 1851.707031 1060.761719 1819.109375 1110.960938 1831.351562 C 1126.238281 1835.078125 1160.5 1839.660156 1202.460938 1844.367188 "/>
</svg>
